<svg id="Layer_1" data-name="Layer 1" xmlns="http://www.w3.org/2000/svg" viewBox="0 0 1000 1000"><path d="M776.75,742.25c-52.26,0-95,42.72-95,95s42.72,95,95,95,95-42.73,95-95-42.72-95-95-95Zm0,0-357.59,0c-52.26,0-95,42.72-95,95s42.72,95,95,95,95-42.73,95-95-42.72-95-95-95Zm0,0M206.36,66.5H96.29a35.5,35.5,0,0,0,0,71h81L263.9,570.81a146,146,0,0,0,142.72,117H830a35.5,35.5,0,0,0,0-71H406.62a74.76,74.76,0,0,1-73.1-60L330.36,541H801.92a109.14,109.14,0,0,0,108-95.36l28.65-229.22a35.44,35.44,0,0,0-35.2-39.89H257.46L241.24,95.51V96a5.12,5.12,0,0,0-.09-1A35.63,35.63,0,0,0,206.36,66.5Zm0,0"/></svg>